HIERARCHY
ROOT Hips
{
	OFFSET 0.000000 0.000000 0.000000
	CHANNELS 6 Xposition Yposition Zposition Xrotation Yrotation Zrotation
	JOINT LeftUpLeg_virtual
	{
		OFFSET 0.000000 0.000000 0.000000
		CHANNELS 3 Xrotation Yrotation Zrotation
		JOINT LeftUpLeg
		{
			OFFSET 15.427100 -6.655098 0.678600
			CHANNELS 3 Xrotation Yrotation Zrotation
			JOINT LeftLeg
			{
				OFFSET 4.081073 -39.591068 13.024000
				CHANNELS 3 Xrotation Yrotation Zrotation
				JOINT LeftFoot
				{
					OFFSET -4.081074 -37.707932 -15.979700
					CHANNELS 3 Xrotation Yrotation Zrotation
					JOINT LeftToeBase
					{
						OFFSET 5.346399 -15.068900 20.645000
						CHANNELS 3 Xrotation Yrotation Zrotation
						JOINT LeftToe_End
						{
							OFFSET 2.754700 0.931300 11.300900
							CHANNELS 3 Xrotation Yrotation Zrotation
							End Site
							{
								OFFSET 0 0 0
							}
						}
					}
				}
			}
		}
	}
	JOINT RightUpLeg_virtual
	{
		OFFSET 0.000000 0.000000 0.000000
		CHANNELS 3 Xrotation Yrotation Zrotation
		JOINT RightUpLeg
		{
			OFFSET -15.569500 -6.655098 0.678600
			CHANNELS 3 Xrotation Yrotation Zrotation
			JOINT RightLeg
			{
				OFFSET -4.081825 -39.591045 13.023800
				CHANNELS 3 Xrotation Yrotation Zrotation
				JOINT RightFoot
				{
					OFFSET 4.081824 -37.707954 -15.979600
					CHANNELS 3 Xrotation Yrotation Zrotation
					JOINT RightToeBase
					{
						OFFSET -5.346400 -15.068900 20.645000
						CHANNELS 3 Xrotation Yrotation Zrotation
						JOINT RightToe_End
						{
							OFFSET -2.754700 0.931300 11.300900
							CHANNELS 3 Xrotation Yrotation Zrotation
							End Site
							{
								OFFSET 0 0 0
							}
						}
					}
				}
			}
		}
	}
	JOINT Spine_virtual
	{
		OFFSET 0.000000 0.000000 0.000000
		CHANNELS 3 Xrotation Yrotation Zrotation
		JOINT Spine
		{
			OFFSET -0.279200 12.230698 -2.892100
			CHANNELS 3 Xrotation Yrotation Zrotation
			JOINT Spine1
			{
				OFFSET -0.232667 10.192268 -1.242267
				CHANNELS 3 Xrotation Yrotation Zrotation
				JOINT Spine1_split
				{
					OFFSET -0.232667 10.192268 -1.242267
					CHANNELS 3 Xrotation Yrotation Zrotation
					JOINT Spine2
					{
						OFFSET -0.232667 10.192268 -1.242267
						CHANNELS 3 Xrotation Yrotation Zrotation
						JOINT Neck_virtual
						{
							OFFSET 0.000000 0.000000 0.000000
							CHANNELS 3 Xrotation Yrotation Zrotation
							JOINT Neck
							{
								OFFSET -0.418800 17.814194 8.416900
								CHANNELS 3 Xrotation Yrotation Zrotation
								JOINT Head
								{
									OFFSET 0.000000 7.031097 3.806800
									CHANNELS 3 Xrotation Yrotation Zrotation
									JOINT HeadTop_End
									{
										OFFSET 0.000000 24.646606 12.978600
										CHANNELS 3 Xrotation Yrotation Zrotation
										End Site
										{
											OFFSET 0 0 0
										}
									}
								}
							}
						}
						JOINT LeftShoulder_virtual
						{
							OFFSET 0.000000 0.000000 0.000000
							CHANNELS 3 Xrotation Yrotation Zrotation
							JOINT LeftShoulder
							{
								OFFSET 8.476499 7.247704 -3.868750
								CHANNELS 3 Xrotation Yrotation Zrotation
								JOINT LeftShoulder_split
								{
									OFFSET 8.476499 7.247704 -3.868750
									CHANNELS 3 Xrotation Yrotation Zrotation
									JOINT LeftArm
									{
										OFFSET 9.308998 -2.777710 0.208600
										CHANNELS 3 Xrotation Yrotation Zrotation
										JOINT LeftForeArm
										{
											OFFSET 29.972298 0.000000 0.000000
											CHANNELS 3 Xrotation Yrotation Zrotation
											JOINT LeftHand
											{
												OFFSET 26.026505 0.000000 0.000000
												CHANNELS 3 Xrotation Yrotation Zrotation
												End Site
												{
													OFFSET 0 0 0
												}
											}
										}
									}
								}
							}
						}
						JOINT RightShoulder_virtual
						{
							OFFSET 0.000000 0.000000 0.000000
							CHANNELS 3 Xrotation Yrotation Zrotation
							JOINT RightShoulder
							{
								OFFSET -7.570500 7.247704 -3.868750
								CHANNELS 3 Xrotation Yrotation Zrotation
								JOINT RightShoulder_split
								{
									OFFSET -7.570500 7.247704 -3.868750
									CHANNELS 3 Xrotation Yrotation Zrotation
									JOINT RightArm
									{
										OFFSET -9.308998 -2.777710 0.208500
										CHANNELS 3 Xrotation Yrotation Zrotation
										JOINT RightForeArm
										{
											OFFSET -29.972300 0.000000 0.000000
											CHANNELS 3 Xrotation Yrotation Zrotation
											JOINT RightHand
											{
												OFFSET -26.026505 0.000000 0.000000
												CHANNELS 3 Xrotation Yrotation Zrotation
												End Site
												{
													OFFSET 0 0 0
												}
											}
										}
									}
								}
							}
						}
					}
				}
			}
		}
	}
}
MOTION
Frames: 4
Frame Time: 0.03333333
1.823350 93.377243 -0.931393 0.000000 0.000000 0.000000 2.579836 -31.550447 1.067499 -13.663363 16.005363 14.378691 16.287061 12.396260 -2.700406 -5.955191 -5.093873 -5.673771 3.694841 -0.175108 -0.939999 0.000000 0.000000 0.000000 4.094753 -31.248030 1.174468 -4.405109 1.754448 -9.258782 7.700842 8.968528 3.083312 -4.062483 -0.813920 3.489258 -2.427015 0.354473 -0.436453 0.000000 0.000000 0.000000 3.549801 -29.116741 0.631669 8.890967 1.901022 -0.024567 0.795077 -0.777548 2.099946 0.061998 -0.735933 1.002697 0.000000 0.000000 0.000000 1.920280 -0.263889 2.266369 -4.689684 21.278356 -6.084344 -6.044587 13.099086 -0.025180 0.000000 0.000000 0.000000 1.445783 -0.605980 2.671023 0.824794 -10.630373 -1.197169 2.183909 -0.346527 1.033127 -60.277376 0.445869 -37.260236 6.932548 -59.703920 9.405309 0.000000 0.000000 0.000000 0.434080 -0.624276 2.834159 4.054760 7.542795 7.125632 -2.432647 -3.153649 -1.819892 -1.566520 3.125771 65.296595 13.042238 24.604100 -4.257327 0.000000 0.000000 0.000000 
1.823674 93.238380 -1.120075 0.000000 0.000000 0.000000 2.588860 -31.927395 1.364690 -13.730218 16.365164 14.201420 16.290372 12.253510 -2.563473 -6.037016 -5.434420 -5.648186 3.432937 -0.143515 -0.937187 0.000000 0.000000 0.000000 4.225878 -31.465514 1.433841 -4.342186 1.142132 -9.367261 7.577186 8.860296 3.148022 -3.777723 -0.826750 4.114063 -4.020621 0.234197 -0.282355 0.000000 0.000000 0.000000 3.365089 -29.197180 0.684855 8.892115 1.860205 -0.160620 0.746767 -0.805521 2.143889 0.213199 -0.902013 1.228840 0.000000 0.000000 0.000000 1.941891 -0.302456 2.344551 -4.349513 21.686926 -6.110983 -6.053749 13.574113 -0.216119 0.000000 0.000000 0.000000 1.297242 -0.627094 2.693385 0.784705 -10.026827 -1.443636 2.094951 -0.564601 1.052256 -60.149269 0.697887 -36.913757 6.895146 -59.766518 9.206334 0.000000 0.000000 0.000000 0.375797 -0.666297 2.910372 3.956837 7.575131 7.440349 -2.379073 -3.553354 -1.779593 -0.857497 3.099004 64.854600 13.112285 24.451664 -4.289845 0.000000 0.000000 0.000000 
1.884938 93.081207 -1.392307 0.000000 0.000000 0.000000 2.986682 -31.831680 1.762906 -13.874327 16.414630 13.894123 16.318864 11.978922 -2.360337 -5.949662 -6.153384 -5.626375 3.241280 -0.088436 -0.919894 0.000000 0.000000 0.000000 4.356972 -31.255916 1.818768 -4.259431 0.331239 -9.769199 8.022149 8.600155 3.142832 -4.599314 -0.755616 4.549054 -3.939707 0.085128 -0.185915 0.000000 0.000000 0.000000 3.397424 -29.088034 0.855237 8.700254 1.760022 -0.429803 0.696673 -0.805324 2.221460 0.432976 -1.069919 1.310304 0.000000 0.000000 0.000000 1.867109 -0.309908 2.472064 -4.145312 22.697306 -6.095239 -5.901840 15.146638 -0.579159 0.000000 0.000000 0.000000 1.183341 -0.620323 2.733714 0.748068 -8.901833 -1.575495 2.103124 -0.764342 1.044760 -59.812704 1.445427 -36.225131 6.418906 -60.092920 8.596345 0.000000 0.000000 0.000000 0.353584 -0.663091 3.011163 3.895411 7.680847 7.784368 -2.333294 -3.534858 -1.710197 0.121449 2.804441 64.264608 13.181658 24.449154 -4.303522 0.000000 0.000000 0.000000 
1.972097 92.944458 -1.606472 0.000000 0.000000 0.000000 3.640248 -31.289476 2.132475 -14.155141 16.197343 13.613019 16.258099 11.715376 -2.167693 -5.739831 -7.104871 -5.551061 3.260529 -0.008970 -0.929059 0.000000 0.000000 0.000000 4.566973 -30.591482 2.175254 -4.329476 -0.425638 -10.348496 8.808472 8.199806 3.095549 -6.185572 -0.519787 5.243731 -2.588055 -0.034861 -0.379202 0.000000 0.000000 0.000000 3.611603 -28.811261 1.022148 8.395601 1.643022 -0.727994 0.639684 -0.745110 2.295758 0.389528 -1.180264 1.221773 0.000000 0.000000 0.000000 1.678450 -0.259682 2.598948 -4.085940 24.220134 -6.099151 -5.603628 17.549920 -1.087501 0.000000 0.000000 0.000000 1.140098 -0.557632 2.756662 0.721205 -7.355757 -1.585364 2.205613 -0.802757 1.172078 -59.288433 2.657175 -35.141170 5.547695 -60.536329 7.642897 0.000000 0.000000 0.000000 0.367287 -0.579524 3.088767 3.856788 7.887368 8.096390 -2.175239 -3.079249 -1.640931 1.115369 2.382273 63.682874 13.253754 24.538351 -4.292573 0.000000 0.000000 0.000000 
